# xmcd CD database file
#
# Track frame offsets:
#	150
#	17116
#	35537
#	53018
#	68331
#	84670
#	102076
#	119008
#	134792
#	150699
#	164601
#	183969
#	201375
#	218072
#	234032
#	250925
#	268449
#	284238
#	303018
#	316719
#
# Disc length: 4388 seconds
#
# Revision: 2
# Processed by: cddbd v1.5.2PL0 Copyright (c) Steve Scherf et al.
# Submitted via: CDex 1.51
#
DISCID=21112214
DTITLE=Various Artist - Hit auf Hit - CD 2
DYEAR=2006
DGENRE=Schlager
TTITLE0=MICHELLE - Sag es noch einmal
TTITLE1=REIM- Egal was solls
TTITLE2=HELENE FISCHER - Feuer am Horizont
TTITLE3=MICHAEL MORGAN - Machmal spür ich dein atem
TTITLE4=CLAUDIA JUNG - Lieb mich
TTITLE5=RAINHARD FENRICH - Rettungslos verliebt
TTITLE6=MÜNCHENER FREIHEIT - kleine Wunder
TTITLE7=JULIANE WERDING - Vergiss nicht dass du lebst
TTITLE8=NINO DE ALNGELO - Wenn du mich suchst
TTITLE9=MARY ROOS - Für immer
TTITLE10=LEONARD - Bis ich auf eigen Beinen steh
TTITLE11=GABY BAGINSKY - ich könnt nicht leben ohne dich
TTITLE12=PATRIZIO BUANNE - Weil es min Herz mir sagt
TTITLE13=MOONBERBEATS - Bring mich durch die Nacht
TTITLE14=FRANK SCHÖBEL -  Jedesmal
TTITLE15=RONNY KRAPPMANN - Wo ist dein Stern
TTITLE16=TANZPALAIS - Wer sagt denn
TTITLE17=SEMINO ROSSI - Solo hay nua
TTITLE18=VICKY LEANDROS - Dont break my heart
TTITLE19=PETER KRAUS - Wenn Teenager Träumen
EXTD=YEAR: 2006
EXTT0=
EXTT1=
EXTT2=
EXTT3=
EXTT4=
EXTT5=
EXTT6=
EXTT7=
EXTT8=
EXTT9=
EXTT10=
EXTT11=
EXTT12=
EXTT13=
EXTT14=
EXTT15=
EXTT16=
EXTT17=
EXTT18=
EXTT19=
PLAYORDER=
